<mxfile host="Electron" agent="Mozilla/5.0 (Windows NT 10.0; Win64; x64) AppleWebKit/537.36 (KHTML, like Gecko) draw.io/25.0.2 Chrome/128.0.6613.186 Electron/32.2.5 Safari/537.36" version="25.0.2">
  <diagram name="Página-1" id="cBYjKDVMAB-YzLPPOipa">
    <mxGraphModel dx="794" dy="519" grid="1" gridSize="10" guides="1" tooltips="1" connect="1" arrows="1" fold="1" page="1" pageScale="1" pageWidth="827" pageHeight="1169" math="0" shadow="0">
      <root>
        <mxCell id="0" />
        <mxCell id="1" parent="0" />
        <mxCell id="z0yy2qOdRcEUAaQ7B5-3-1" value="Streaming de músicas" style="swimlane;whiteSpace=wrap;html=1;fillStyle=auto;movable=0;resizable=0;rotatable=0;deletable=0;editable=0;locked=1;connectable=0;" vertex="1" parent="1">
          <mxGeometry x="230" y="280" width="480" height="500" as="geometry" />
        </mxCell>
        <mxCell id="z0yy2qOdRcEUAaQ7B5-3-2" value="" style="whiteSpace=wrap;html=1;aspect=fixed;fillStyle=auto;strokeColor=default;align=center;verticalAlign=middle;fontFamily=Helvetica;fontSize=12;fontColor=default;fontStyle=1;fillColor=default;movable=0;resizable=0;rotatable=0;deletable=0;editable=0;locked=1;connectable=0;" vertex="1" parent="z0yy2qOdRcEUAaQ7B5-3-1">
          <mxGeometry y="20" width="480" height="480" as="geometry" />
        </mxCell>
        <mxCell id="z0yy2qOdRcEUAaQ7B5-3-15" style="edgeStyle=orthogonalEdgeStyle;rounded=0;orthogonalLoop=1;jettySize=auto;html=1;exitX=0.5;exitY=0.5;exitDx=0;exitDy=0;exitPerimeter=0;entryX=0;entryY=0.5;entryDx=0;entryDy=0;fontFamily=Helvetica;fontSize=12;fontColor=default;fontStyle=1;endArrow=block;endFill=1;" edge="1" parent="1" source="z0yy2qOdRcEUAaQ7B5-3-3" target="z0yy2qOdRcEUAaQ7B5-3-9">
          <mxGeometry relative="1" as="geometry">
            <Array as="points">
              <mxPoint x="160" y="525" />
              <mxPoint x="160" y="335" />
            </Array>
          </mxGeometry>
        </mxCell>
        <mxCell id="z0yy2qOdRcEUAaQ7B5-3-35" style="edgeStyle=orthogonalEdgeStyle;rounded=0;orthogonalLoop=1;jettySize=auto;html=1;exitX=0.5;exitY=0.5;exitDx=0;exitDy=0;exitPerimeter=0;entryX=0;entryY=0.5;entryDx=0;entryDy=0;fontFamily=Helvetica;fontSize=12;fontColor=default;fontStyle=1;endArrow=block;endFill=1;" edge="1" parent="1" source="z0yy2qOdRcEUAaQ7B5-3-3" target="z0yy2qOdRcEUAaQ7B5-3-22">
          <mxGeometry relative="1" as="geometry">
            <Array as="points">
              <mxPoint x="180" y="525" />
              <mxPoint x="180" y="450" />
            </Array>
          </mxGeometry>
        </mxCell>
        <mxCell id="z0yy2qOdRcEUAaQ7B5-3-45" style="edgeStyle=orthogonalEdgeStyle;rounded=0;orthogonalLoop=1;jettySize=auto;html=1;exitX=0.5;exitY=0.5;exitDx=0;exitDy=0;exitPerimeter=0;entryX=0;entryY=0.5;entryDx=0;entryDy=0;fontFamily=Helvetica;fontSize=12;fontColor=default;fontStyle=1;" edge="1" parent="1" source="z0yy2qOdRcEUAaQ7B5-3-3" target="z0yy2qOdRcEUAaQ7B5-3-44">
          <mxGeometry relative="1" as="geometry">
            <Array as="points">
              <mxPoint x="170" y="525" />
              <mxPoint x="170" y="383" />
            </Array>
          </mxGeometry>
        </mxCell>
        <mxCell id="z0yy2qOdRcEUAaQ7B5-3-59" style="edgeStyle=orthogonalEdgeStyle;rounded=0;orthogonalLoop=1;jettySize=auto;html=1;entryX=0;entryY=0.5;entryDx=0;entryDy=0;fontFamily=Helvetica;fontSize=12;fontColor=default;fontStyle=1;endArrow=block;endFill=1;" edge="1" parent="1" source="z0yy2qOdRcEUAaQ7B5-3-3" target="z0yy2qOdRcEUAaQ7B5-3-46">
          <mxGeometry relative="1" as="geometry" />
        </mxCell>
        <mxCell id="z0yy2qOdRcEUAaQ7B5-3-62" style="edgeStyle=orthogonalEdgeStyle;rounded=0;orthogonalLoop=1;jettySize=auto;html=1;entryX=0;entryY=0.5;entryDx=0;entryDy=0;fontFamily=Helvetica;fontSize=12;fontColor=default;fontStyle=1;endArrow=block;endFill=1;" edge="1" parent="1" source="z0yy2qOdRcEUAaQ7B5-3-3" target="z0yy2qOdRcEUAaQ7B5-3-52">
          <mxGeometry relative="1" as="geometry">
            <Array as="points">
              <mxPoint x="190" y="525" />
              <mxPoint x="190" y="720" />
            </Array>
          </mxGeometry>
        </mxCell>
        <mxCell id="z0yy2qOdRcEUAaQ7B5-3-3" value="Usuário" style="shape=umlActor;verticalLabelPosition=bottom;verticalAlign=top;html=1;outlineConnect=0;fillStyle=auto;strokeColor=default;align=center;fontFamily=Helvetica;fontSize=12;fontColor=default;fontStyle=1;fillColor=default;" vertex="1" parent="1">
          <mxGeometry x="90" y="480" width="50" height="90" as="geometry" />
        </mxCell>
        <mxCell id="z0yy2qOdRcEUAaQ7B5-3-43" style="edgeStyle=orthogonalEdgeStyle;rounded=0;orthogonalLoop=1;jettySize=auto;html=1;exitX=1;exitY=0.5;exitDx=0;exitDy=0;entryX=0.5;entryY=0.5;entryDx=0;entryDy=0;fontFamily=Helvetica;fontSize=12;fontColor=default;fontStyle=1;entryPerimeter=0;endArrow=block;endFill=1;" edge="1" parent="1" source="z0yy2qOdRcEUAaQ7B5-3-27" target="z0yy2qOdRcEUAaQ7B5-3-7">
          <mxGeometry relative="1" as="geometry" />
        </mxCell>
        <mxCell id="z0yy2qOdRcEUAaQ7B5-3-54" style="edgeStyle=orthogonalEdgeStyle;rounded=0;orthogonalLoop=1;jettySize=auto;html=1;exitX=0.5;exitY=0.5;exitDx=0;exitDy=0;exitPerimeter=0;entryX=1;entryY=0.5;entryDx=0;entryDy=0;fontFamily=Helvetica;fontSize=12;fontColor=default;fontStyle=1;endArrow=block;endFill=1;" edge="1" parent="1" source="z0yy2qOdRcEUAaQ7B5-3-7" target="z0yy2qOdRcEUAaQ7B5-3-46">
          <mxGeometry relative="1" as="geometry" />
        </mxCell>
        <mxCell id="z0yy2qOdRcEUAaQ7B5-3-7" value="Sistema do streaming" style="shape=umlActor;verticalLabelPosition=bottom;verticalAlign=top;html=1;outlineConnect=0;fillStyle=auto;strokeColor=default;align=center;fontFamily=Helvetica;fontSize=12;fontColor=default;fontStyle=1;fillColor=default;" vertex="1" parent="1">
          <mxGeometry x="777" y="480" width="50" height="90" as="geometry" />
        </mxCell>
        <mxCell id="z0yy2qOdRcEUAaQ7B5-3-9" value="cadastro" style="ellipse;whiteSpace=wrap;html=1;fillStyle=auto;strokeColor=default;align=center;verticalAlign=middle;fontFamily=Helvetica;fontSize=12;fontColor=default;fontStyle=1;fillColor=default;" vertex="1" parent="1">
          <mxGeometry x="247.5" y="310" width="80" height="50" as="geometry" />
        </mxCell>
        <mxCell id="z0yy2qOdRcEUAaQ7B5-3-31" value="Include" style="edgeStyle=orthogonalEdgeStyle;rounded=0;orthogonalLoop=1;jettySize=auto;html=1;exitX=0.5;exitY=1;exitDx=0;exitDy=0;entryX=0.5;entryY=1;entryDx=0;entryDy=0;fontFamily=Helvetica;fontSize=12;fontColor=default;fontStyle=1;endArrow=block;endFill=1;dashed=1;" edge="1" parent="1" source="z0yy2qOdRcEUAaQ7B5-3-22" target="z0yy2qOdRcEUAaQ7B5-3-23">
          <mxGeometry relative="1" as="geometry" />
        </mxCell>
        <mxCell id="z0yy2qOdRcEUAaQ7B5-3-64" value="Include" style="edgeStyle=orthogonalEdgeStyle;rounded=0;orthogonalLoop=1;jettySize=auto;html=1;exitX=0.5;exitY=1;exitDx=0;exitDy=0;entryX=0.5;entryY=1;entryDx=0;entryDy=0;fontFamily=Helvetica;fontSize=12;fontColor=default;fontStyle=1;dashed=1;endArrow=block;endFill=1;" edge="1" parent="1" source="z0yy2qOdRcEUAaQ7B5-3-22" target="z0yy2qOdRcEUAaQ7B5-3-24">
          <mxGeometry relative="1" as="geometry">
            <Array as="points">
              <mxPoint x="295" y="520" />
              <mxPoint x="505" y="520" />
            </Array>
          </mxGeometry>
        </mxCell>
        <mxCell id="z0yy2qOdRcEUAaQ7B5-3-22" value="Assinatura" style="ellipse;whiteSpace=wrap;html=1;fillStyle=auto;strokeColor=default;align=center;verticalAlign=middle;fontFamily=Helvetica;fontSize=12;fontColor=default;fontStyle=1;fillColor=default;" vertex="1" parent="1">
          <mxGeometry x="250" y="420" width="90" height="60" as="geometry" />
        </mxCell>
        <mxCell id="z0yy2qOdRcEUAaQ7B5-3-23" value="Seleção do pacote (nivel da assinatura)" style="ellipse;whiteSpace=wrap;html=1;fillStyle=auto;strokeColor=default;align=center;verticalAlign=middle;fontFamily=Helvetica;fontSize=12;fontColor=default;fontStyle=1;fillColor=default;" vertex="1" parent="1">
          <mxGeometry x="350" y="420" width="100" height="65" as="geometry" />
        </mxCell>
        <mxCell id="z0yy2qOdRcEUAaQ7B5-3-65" value="Include" style="edgeStyle=orthogonalEdgeStyle;rounded=0;orthogonalLoop=1;jettySize=auto;html=1;exitX=0.5;exitY=0;exitDx=0;exitDy=0;entryX=0.5;entryY=0;entryDx=0;entryDy=0;fontFamily=Helvetica;fontSize=12;fontColor=default;fontStyle=1;dashed=1;endArrow=block;endFill=1;" edge="1" parent="1" source="z0yy2qOdRcEUAaQ7B5-3-24" target="z0yy2qOdRcEUAaQ7B5-3-27">
          <mxGeometry relative="1" as="geometry" />
        </mxCell>
        <mxCell id="z0yy2qOdRcEUAaQ7B5-3-24" value="Forma de pagamento" style="ellipse;whiteSpace=wrap;html=1;fillStyle=auto;strokeColor=default;align=center;verticalAlign=middle;fontFamily=Helvetica;fontSize=12;fontColor=default;fontStyle=1;fillColor=default;" vertex="1" parent="1">
          <mxGeometry x="460" y="422.5" width="90" height="60" as="geometry" />
        </mxCell>
        <mxCell id="z0yy2qOdRcEUAaQ7B5-3-27" value="Finalizar compra" style="ellipse;whiteSpace=wrap;html=1;fillStyle=auto;strokeColor=default;align=center;verticalAlign=middle;fontFamily=Helvetica;fontSize=12;fontColor=default;fontStyle=1;fillColor=default;" vertex="1" parent="1">
          <mxGeometry x="580" y="427.5" width="90" height="50" as="geometry" />
        </mxCell>
        <mxCell id="z0yy2qOdRcEUAaQ7B5-3-44" value="Login" style="ellipse;whiteSpace=wrap;html=1;fillStyle=auto;strokeColor=default;align=center;verticalAlign=middle;fontFamily=Helvetica;fontSize=12;fontColor=default;fontStyle=1;fillColor=default;" vertex="1" parent="1">
          <mxGeometry x="310" y="360" width="75" height="45" as="geometry" />
        </mxCell>
        <mxCell id="z0yy2qOdRcEUAaQ7B5-3-46" value="escolher música" style="ellipse;whiteSpace=wrap;html=1;fillStyle=auto;strokeColor=default;align=center;verticalAlign=middle;fontFamily=Helvetica;fontSize=12;fontColor=default;fontStyle=1;fillColor=default;" vertex="1" parent="1">
          <mxGeometry x="270" y="540" width="90" height="60" as="geometry" />
        </mxCell>
        <mxCell id="z0yy2qOdRcEUAaQ7B5-3-47" value="Baixar para ouvir offline" style="ellipse;whiteSpace=wrap;html=1;fillStyle=auto;strokeColor=default;align=center;verticalAlign=middle;fontFamily=Helvetica;fontSize=12;fontColor=default;fontStyle=1;fillColor=default;" vertex="1" parent="1">
          <mxGeometry x="500" y="630" width="95" height="60" as="geometry" />
        </mxCell>
        <mxCell id="z0yy2qOdRcEUAaQ7B5-3-52" value="Criar playlist" style="ellipse;whiteSpace=wrap;html=1;fillStyle=auto;strokeColor=default;align=center;verticalAlign=middle;fontFamily=Helvetica;fontSize=12;fontColor=default;fontStyle=1;fillColor=default;" vertex="1" parent="1">
          <mxGeometry x="295" y="690" width="90" height="60" as="geometry" />
        </mxCell>
        <mxCell id="z0yy2qOdRcEUAaQ7B5-3-60" value="Extend" style="edgeStyle=orthogonalEdgeStyle;rounded=0;orthogonalLoop=1;jettySize=auto;html=1;entryX=0.5;entryY=1;entryDx=0;entryDy=0;fontFamily=Helvetica;fontSize=12;fontColor=default;fontStyle=1;dashed=1;endArrow=block;endFill=1;" edge="1" parent="1" source="z0yy2qOdRcEUAaQ7B5-3-57" target="z0yy2qOdRcEUAaQ7B5-3-46">
          <mxGeometry relative="1" as="geometry" />
        </mxCell>
        <mxCell id="z0yy2qOdRcEUAaQ7B5-3-57" value="Reproduzir áudio" style="ellipse;whiteSpace=wrap;html=1;fillStyle=auto;strokeColor=default;align=center;verticalAlign=middle;fontFamily=Helvetica;fontSize=12;fontColor=default;fontStyle=1;fillColor=default;" vertex="1" parent="1">
          <mxGeometry x="410" y="600" width="80" height="50" as="geometry" />
        </mxCell>
        <mxCell id="z0yy2qOdRcEUAaQ7B5-3-61" value="Extend" style="edgeStyle=orthogonalEdgeStyle;rounded=0;orthogonalLoop=1;jettySize=auto;html=1;entryX=0.23;entryY=0.917;entryDx=0;entryDy=0;entryPerimeter=0;fontFamily=Helvetica;fontSize=12;fontColor=default;fontStyle=1;dashed=1;endArrow=block;endFill=1;" edge="1" parent="1" source="z0yy2qOdRcEUAaQ7B5-3-47" target="z0yy2qOdRcEUAaQ7B5-3-46">
          <mxGeometry relative="1" as="geometry" />
        </mxCell>
      </root>
    </mxGraphModel>
  </diagram>
</mxfile>
